<?xml version="1.0" encoding="UTF-8" standalone="no"?>
<svg
   version="1.0"
   width="1280.000000pt"
   height="1280.000000pt"
   viewBox="0 0 1280.000000 1280.000000"
   preserveAspectRatio="xMidYMid meet"
   id="svg1"
   sodipodi:docname="text-to-speech.svg"
   inkscape:version="1.4 (e7c3feb100, 2024-10-09)"
   inkscape:export-filename="text-to-speech.png"
   inkscape:export-xdpi="96"
   inkscape:export-ydpi="96"
   xmlns:inkscape="http://www.inkscape.org/namespaces/inkscape"
   xmlns:sodipodi="http://sodipodi.sourceforge.net/DTD/sodipodi-0.dtd"
   xmlns="http://www.w3.org/2000/svg"
   xmlns:svg="http://www.w3.org/2000/svg">
  <defs
     id="defs1" />
  <sodipodi:namedview
     id="namedview1"
     pagecolor="#ffffff"
     bordercolor="#000000"
     borderopacity="0.25"
     inkscape:showpageshadow="2"
     inkscape:pageopacity="0.0"
     inkscape:pagecheckerboard="0"
     inkscape:deskcolor="#d1d1d1"
     inkscape:document-units="pt"
     inkscape:zoom="1.1255859"
     inkscape:cx="853.33333"
     inkscape:cy="498.40708"
     inkscape:window-width="2560"
     inkscape:window-height="1403"
     inkscape:window-x="0"
     inkscape:window-y="0"
     inkscape:window-maximized="1"
     inkscape:current-layer="svg1" />
  <g
     transform="matrix(0.01,0,0,-0.01,0,128)"
     fill="#000000"
     stroke="none"
     id="g1">
    <path
       d="m 5870,12793 c 0,-4 -22,-133 -50,-287 -59,-338 -185,-1055 -200,-1147 -6,-36 -15,-70 -19,-77 -3,-6 -67,-23 -141,-37 -235,-46 -469,-109 -699,-189 -67,-23 -108,-33 -115,-27 -6,5 -227,268 -491,585 -383,459 -484,575 -501,573 -22,-4 -890,-503 -899,-517 -3,-5 112,-330 255,-723 143,-393 258,-721 254,-728 -3,-8 -42,-45 -87,-82 -113,-95 -395,-375 -497,-495 -47,-55 -91,-103 -99,-106 -7,-4 -335,111 -728,254 -392,144 -718,258 -723,255 -14,-9 -513,-877 -517,-899 -2,-17 108,-114 542,-476 300,-250 564,-471 586,-490 l 40,-35 -56,-161 c -63,-184 -132,-446 -170,-644 -14,-74 -31,-138 -37,-141 -7,-4 -41,-13 -77,-19 -69,-11 -362,-63 -1027,-180 -221,-38 -404,-70 -408,-70 -3,0 -6,-238 -6,-530 0,-291 3,-530 6,-530 4,0 187,-32 408,-70 665,-117 958,-169 1027,-180 36,-6 70,-15 77,-19 6,-3 23,-67 37,-141 38,-198 107,-460 170,-644 l 56,-161 -40,-35 c -22,-19 -286,-240 -586,-490 -434,-362 -544,-459 -542,-476 4,-22 503,-890 517,-899 5,-3 331,111 723,255 393,143 721,258 728,254 8,-3 52,-51 99,-106 102,-120 384,-400 497,-495 45,-37 84,-74 87,-82 4,-7 -111,-335 -254,-728 -143,-393 -258,-718 -255,-723 9,-14 877,-513 899,-517 17,-2 118,114 501,573 264,317 485,580 491,585 7,6 48,-4 115,-27 230,-80 464,-143 699,-189 74,-14 138,-31 141,-37 4,-7 13,-41 19,-77 11,-69 63,-362 180,-1027 38,-221 70,-404 70,-408 0,-3 239,-6 530,-6 333,0 530,4 530,10 0,5 34,202 75,437 42,235 101,572 131,748 31,176 59,323 63,327 3,4 67,19 141,33 235,46 502,118 704,190 l 99,36 36,-40 c 20,-22 241,-285 491,-585 362,-435 459,-545 476,-543 22,4 890,503 899,517 3,5 -112,332 -256,726 l -262,717 45,41 c 24,23 105,96 179,164 75,67 194,186 265,264 71,78 147,162 170,186 l 40,44 718,-262 c 592,-215 721,-259 731,-248 30,31 516,890 512,902 -3,8 -267,233 -586,501 -320,268 -581,488 -581,490 0,2 17,53 38,112 75,210 149,487 192,715 15,78 27,118 37,122 13,5 1492,266 1507,266 3,0 6,239 6,530 0,292 -3,530 -6,530 -4,0 -187,32 -408,70 -666,117 -958,169 -1028,181 -37,6 -72,17 -78,24 -6,7 -21,68 -34,136 -45,231 -114,485 -188,692 -21,59 -38,110 -38,112 0,2 261,222 581,490 319,268 583,493 586,501 4,12 -482,871 -512,902 -10,11 -139,-33 -731,-248 l -718,-262 -40,44 c -23,24 -99,108 -170,186 -71,78 -190,197 -265,264 -74,68 -155,141 -179,164 l -45,41 262,717 c 144,394 259,721 256,726 -9,14 -877,513 -899,517 -17,2 -114,-108 -476,-543 -250,-300 -471,-563 -491,-585 l -36,-40 -99,36 c -202,72 -469,144 -704,190 -74,14 -138,29 -141,33 -4,4 -32,151 -63,327 -30,176 -89,513 -131,748 -41,235 -75,432 -75,437 0,6 -197,10 -530,10 -291,0 -530,-3 -530,-7 z M 6870,10166 C 8217,9980 9316,9164 9867,7939 10264,7060 10300,6009 9965,5100 9501,3840 8405,2912 7095,2671 c -266,-49 -345,-55 -695,-55 -350,0 -429,6 -695,55 -917,169 -1764,691 -2325,1434 -397,527 -635,1097 -738,1770 -24,159 -26,193 -26,525 0,332 2,366 26,525 14,94 38,224 53,290 249,1121 984,2064 2011,2578 430,216 921,352 1399,391 123,10 654,-3 765,-18 z"
       id="path1" />
  </g>
  <g
     data-name="Product Icons"
     id="g2"
     transform="matrix(3.1499266,0,0,3.1499266,27.501431,23.414692)">
    <rect
       class="cls-1"
       x="2.01"
       y="6.9899998"
       width="6.6399999"
       height="1.67"
       id="rect1"
       style="fill:#000000" />
    <polygon
       class="cls-1"
       points="11.17,16.99 11.17,15.32 2,15.32 2,16.99 "
       id="polygon1"
       style="fill:#000000" />
    <polygon
       class="cls-1"
       points="12,12.82 10.33,11.16 4.51,11.16 2,11.16 2,12.82 6.18,12.82 "
       id="polygon2"
       style="fill:#000000" />
    <path
       class="cls-2"
       d="m 12,9.07 a 0.42,0.42 0 0 1 0.42,-0.36 0.41,0.41 0 0 1 0.41,0.36 v 9.18 a 2.09,2.09 0 0 0 2.61,2 A 2.16,2.16 0 0 0 17,18.14 V 5.75 a 0.4,0.4 0 0 1 0.19,-0.4 0.41,0.41 0 0 1 0.45,0 0.4,0.4 0 0 1 0.19,0.4 v 9.16 a 2.07,2.07 0 0 0 0.81,1.64 2,2 0 0 0 1.8,0.37 A 2.16,2.16 0 0 0 22,14.8 V 12 h -1.67 v 2.92 a 0.4,0.4 0 0 1 -0.19,0.4 0.41,0.41 0 0 1 -0.45,0 0.4,0.4 0 0 1 -0.19,-0.4 V 5.75 a 2.09,2.09 0 0 0 -2.61,-2 2.16,2.16 0 0 0 -1.56,2.13 v 12.37 a 0.4,0.4 0 0 1 -0.19,0.4 0.41,0.41 0 0 1 -0.45,0 0.4,0.4 0 0 1 -0.19,-0.4 V 9.08 A 2.07,2.07 0 0 0 10.39,8.72 2.4,2.4 0 0 0 10.34,9.18 v 2 L 12,12.82 Z"
       id="path2"
       style="fill:#000000" />
  </g>
</svg>
